<svg width="245" height="229" viewBox="0 0 245 229" fill="none" xmlns="http://www.w3.org/2000/svg">
<g clip-path="url(#clip0_90_50)">
<path d="M206.97 141.84C193.04 169.59 179.64 175.05 172.11 174.9C164.06 174.72 152.3 170.18 145.67 154.02C140.62 141.69 135.27 124.14 132.29 114.03C125.07 89.5899 117.85 61.6199 107.02 33.6599C89.64 -11.2501 31.04 -11.3901 14.35 34.2799C6.8 54.9099 0.88 77.2399 0 86.1599L6.58 86.2299C20.51 58.4799 32.64 52.2499 40.19 52.2499C50.54 52.2499 60 57.8899 66.63 74.0499C71.68 86.3799 76.61 99.7599 80.65 114.04C86.38 134.31 89.21 151.2 99.25 179.47C117.81 231.74 146.97 227.95 151.71 227.95C200.96 227.95 212.7 150.84 213.56 141.92L206.98 141.85H206.96L206.97 141.84Z" fill="#233431"/>
<path d="M205.89 76.34C227.423 76.34 244.88 59.2507 244.88 38.17C244.88 17.0893 227.423 0 205.89 0C184.356 0 166.9 17.0893 166.9 38.17C166.9 59.2507 184.356 76.34 205.89 76.34Z" fill="#233431"/>
</g>
<defs>
<clipPath id="clip0_90_50">
<rect width="245" height="229" fill="white"/>
</clipPath>
</defs>
</svg>
