<svg width="710" height="229" viewBox="0 0 710 229" fill="none" xmlns="http://www.w3.org/2000/svg">
<g clip-path="url(#clip0_90_44)">
<path d="M206.97 141.84C193.04 169.59 179.64 175.05 172.11 174.9C164.06 174.72 152.3 170.18 145.67 154.02C140.62 141.69 135.27 124.14 132.29 114.03C125.07 89.5901 117.85 61.6201 107.02 33.6601C89.64 -11.2499 31.04 -11.3899 14.35 34.2801C6.8 54.9101 0.88 77.2401 0 86.1601L6.58 86.2301C20.51 58.4801 32.64 52.2501 40.19 52.2501C50.54 52.2501 60 57.8901 66.63 74.0501C71.68 86.3801 76.61 99.7601 80.65 114.04C86.38 134.31 89.21 151.2 99.25 179.47C117.81 231.74 146.97 227.95 151.71 227.95C200.96 227.95 212.7 150.84 213.56 141.92L206.98 141.85H206.96L206.97 141.84Z" fill="black"/>
<path d="M316.7 5.37H263V222.64H316.7V5.37Z" fill="black"/>
<path d="M358.17 5.37004H408.98V45.49H412.29C419.31 28.55 439.14 4.54004 469.29 4.54004H489.12V55.76H466.81C432.54 55.76 411.88 80.96 411.88 119.79V222.63H358.18V5.37004H358.16H358.17Z" fill="black"/>
<path d="M658.79 91.69C656.31 62.36 633.6 42.95 602.21 42.95C570.82 42.95 548.94 64.43 545.63 91.69H658.79ZM492.76 115.23C492.76 46.66 538.61 0 602.21 0C672.02 0 710 51.62 710 112.77V129.7H544.8C546.45 162.74 569.17 185.06 603.86 185.06C630.29 185.06 650.54 172.67 657.96 154.9H707.92C697.19 199.1 658.36 228.01 602.18 228.01C538.18 228.01 492.73 180.1 492.73 115.24" fill="black"/>
<path d="M205.89 76.34C227.423 76.34 244.88 59.2507 244.88 38.17C244.88 17.0893 227.423 0 205.89 0C184.356 0 166.9 17.0893 166.9 38.17C166.9 59.2507 184.356 76.34 205.89 76.34Z" fill="black"/>
</g>
<defs>
<clipPath id="clip0_90_44">
<rect width="710" height="228.01" fill="white"/>
</clipPath>
</defs>
</svg>
